#N canvas 159 280 825 521 10;
#X obj 96 65 inlet;
#X floatatom 97 111 0 0 0 0 - - -;
#X obj 338 113 loadbang;
#X obj 96 184 metro;
#X obj 103 296 makenote;
#X floatatom 189 166 0 0 0 0 - - -;
#X obj 103 270 f;
#X floatatom 145 166 0 500 2000 0 - - -;
#X floatatom 233 166 0 0 0 0 - - -;
#X floatatom 276 166 0 0 0 0 - - -;
#X msg 338 148 500;
#X msg 370 148 60;
#X msg 399 148 64;
#X msg 427 148 250;
#X text 144 145 rate;
#X text 187 145 pitch;
#X text 232 145 vel;
#X text 268 146 length;
#X floatatom 315 261 0 0 0 0 - - -;
#X floatatom 416 279 0 0 0 0 - - -;
#X obj 103 322 noteout 5;
#X obj 315 295 ctlout 12 5;
#X obj 416 305 bendout 5;
#X obj 153 100 random 127;
#X obj 414 222 random 127;
#X obj 313 212 random 127;
#X obj 61 207 bng 15 250 50 0 empty empty empty 17 7 0 10 -262144 -1
-1;
#X connect 0 0 1 0;
#X connect 1 0 3 0;
#X connect 2 0 10 0;
#X connect 2 0 11 0;
#X connect 2 0 12 0;
#X connect 2 0 13 0;
#X connect 3 0 23 0;
#X connect 3 0 25 0;
#X connect 3 0 24 0;
#X connect 3 0 6 0;
#X connect 4 0 20 0;
#X connect 4 1 20 1;
#X connect 5 0 6 1;
#X connect 6 0 4 0;
#X connect 6 0 20 0;
#X connect 7 0 3 1;
#X connect 8 0 4 1;
#X connect 9 0 4 2;
#X connect 10 0 7 0;
#X connect 11 0 5 0;
#X connect 12 0 8 0;
#X connect 13 0 9 0;
#X connect 18 0 21 0;
#X connect 19 0 22 0;
#X connect 23 0 8 0;
#X connect 24 0 19 0;
#X connect 25 0 21 0;
#X connect 26 0 6 0;
